<?xml version="1.0" encoding="UTF-8"?>
<svg version="1.1" xmlns="http://www.w3.org/2000/svg" width="1024" height="1024">
<path d="M0 0 C337.92 0 675.84 0 1024 0 C1024 337.92 1024 675.84 1024 1024 C686.08 1024 348.16 1024 0 1024 C0 686.08 0 348.16 0 0 Z " fill="#FEFDF9" transform="translate(0,0)"/>
<path d="M0 0 C1.65713728 0.65454032 3.3148779 1.3075547 4.97314453 1.95922852 C8.79234881 3.46457531 12.60656055 4.9818594 16.41796875 6.50683594 C23.34880677 9.27974584 30.28796282 12.03144974 37.22777939 14.78178596 C46.80369818 18.57709277 56.37812914 22.37611712 65.94873047 26.18481445 C81.98873138 32.56758353 98.03679264 38.92690746 114.125 45.1875 C114.93888184 45.50430725 115.75276367 45.8211145 116.59130859 46.14752197 C120.39021575 47.62593193 124.18958219 49.10315619 127.98925781 50.57958984 C138.71464361 54.74807093 149.42920833 58.943585 160.125 63.1875 C161.34574219 63.6712207 162.56648437 64.15494141 163.82421875 64.65332031 C167.55366666 66.13354222 171.27710069 67.62838347 175 69.125 C176.13034668 69.57399658 177.26069336 70.02299316 178.42529297 70.4855957 C193.27983785 76.49717571 193.27983785 76.49717571 197.125 84.1875 C197.9815765 88.55778828 197.49377185 91.44995631 195.5 95.4375 C191.16959615 100.45165182 185.78340127 102.9559999 179.7109375 105.33203125 C178.99497406 105.61893326 178.27901062 105.90583527 177.54135132 106.20143127 C175.99906222 106.81880793 174.45557397 107.43319586 172.91101074 108.04486084 C168.78126718 109.68088831 164.66086853 111.34019456 160.5390625 112.99609375 C159.68828125 113.33719177 158.8375 113.67828979 157.9609375 114.02972412 C149.37283381 117.47742205 140.8187595 121.00541603 132.2756958 124.56307983 C130.6761963 125.22895847 129.07622047 125.89369408 127.47576904 126.55728149 C125.24838428 127.48091425 123.02240608 128.40784868 120.796875 129.3359375 C120.13199066 129.61127823 119.46710632 129.88661896 118.78207397 130.17030334 C115.72768472 131.31378765 115.72768472 131.31378765 113.125 133.1875 C113.05241054 135.37389453 113.04126217 137.56250389 113.0625 139.75 C113.07603516 141.54630859 113.07603516 141.54630859 113.08984375 143.37890625 C113.10144531 144.30574219 113.11304688 145.23257813 113.125 146.1875 C113.70765625 145.72859375 114.2903125 145.2696875 114.890625 144.796875 C125.50359738 136.85383278 135.85691248 133.75908214 149.125 135.1875 C162.02460401 137.67328458 173.17129324 144.69450144 180.74609375 155.5 C190.03951241 170.33238888 193.272542 185.83281064 190 203.125 C185.26778215 222.93428404 173.91510242 238.76228238 157.125 250.1875 C156.135 250.5175 155.145 250.8475 154.125 251.1875 C154.4967334 251.79932129 154.8684668 252.41114258 155.25146484 253.04150391 C181.125 295.8663906 181.125 295.8663906 181.125 308.1875 C181.785 308.1875 182.445 308.1875 183.125 308.1875 C183.125 307.5275 183.125 306.8675 183.125 306.1875 C204.96689089 290.25488781 229.93209592 282.74143329 256.8125 282.75 C257.88707962 282.74839874 257.88707962 282.74839874 258.98336792 282.74676514 C278.36451175 282.78813135 297.45282212 285.97430995 315.125 294.1875 C315.93388672 294.56116699 316.74277344 294.93483398 317.57617188 295.31982422 C330.53128745 301.42895586 341.44065031 308.68995234 352.125 318.1875 C353.07890625 319.00347656 354.0328125 319.81945312 355.015625 320.66015625 C382.82030588 344.83999376 398.75606564 378.39357038 405.125 414.1875 C405.31964844 415.27933594 405.51429688 416.37117188 405.71484375 417.49609375 C407.41550056 432.80200502 406.57087779 448.2124236 403.125 463.1875 C402.93164062 464.20070313 402.73828125 465.21390625 402.5390625 466.2578125 C397.38728592 490.812384 381.5447594 513.85079228 361.125 528.1875 C343.84030068 539.33428353 320.52467206 546.34589441 299.90625 542.80664062 C294.89228177 541.69393934 289.73069207 540.49034603 285.125 538.1875 C285.37894531 539.04988281 285.63289062 539.91226563 285.89453125 540.80078125 C287.95591036 548.11211464 289.62884033 555.3684043 290.8125 562.875 C290.93149658 563.62112549 291.05049316 564.36725098 291.1730957 565.13598633 C293.02715267 577.459383 293.36576347 589.74996138 293.375 602.1875 C293.37601212 603.41821732 293.37601212 603.41821732 293.37704468 604.67379761 C293.36085614 617.0861704 292.85178256 629.03536077 290.125 641.1875 C289.95339355 641.99316406 289.78178711 642.79882812 289.60498047 643.62890625 C282.36100542 677.13633688 266.94259391 705.80681025 244.125 731.1875 C243.51140625 731.87457031 242.8978125 732.56164062 242.265625 733.26953125 C222.45508515 754.20789886 194.40179785 765.88235048 167.0859375 773.109375 C158.57406254 775.38485693 158.57406254 775.38485693 153.125 782.1875 C150.48937024 783.50531488 148.52335628 783.32032783 145.57014084 783.33010101 C144.38202104 783.33640895 143.19390125 783.34271689 141.96977782 783.34921598 C140.65288285 783.35107798 139.33598789 783.35293998 137.97918701 783.3548584 C136.57517849 783.36030264 135.17117155 783.36616585 133.76716638 783.37241411 C129.8953375 783.38829771 126.02351497 783.39779108 122.15166354 783.40617895 C118.83409122 783.41417275 115.51653614 783.42586538 112.19897524 783.43759376 C100.31496417 783.47953516 88.43093288 783.50670809 76.546875 783.53125 C75.60940166 783.5332249 74.67192832 783.5351998 73.7060467 783.53723454 C55.1003672 783.57638939 36.49468109 783.61010636 17.88897324 783.63231659 C13.79691305 783.63728611 9.70485296 783.6423304 5.61279297 783.64746094 C4.5956982 783.64873161 3.57860343 783.65000228 2.5306876 783.65131146 C-13.95164086 783.67267911 -30.43377016 783.72168083 -46.91599837 783.78170508 C-63.82785421 783.84278746 -80.73960721 783.87749887 -97.65157199 783.8867898 C-107.15117711 783.89270678 -116.65044483 783.91051864 -126.14994049 783.95817566 C-134.23903107 783.99871903 -142.32772923 784.01567637 -150.41691694 784.00152284 C-154.545489 783.99504314 -158.67322476 783.99999214 -162.80166817 784.03539658 C-166.58093017 784.06754676 -170.35876376 784.06743506 -174.13806137 784.04157954 C-176.15371594 784.03619128 -178.1693712 784.06536387 -180.1848042 784.09573126 C-188.76467886 783.99154558 -188.76467886 783.99154558 -191.99762487 781.65038872 C-193.53425931 779.8961877 -194.73320339 778.21547311 -195.875 776.1875 C-196.33052246 775.4555542 -196.78604492 774.7236084 -197.25537109 773.96948242 C-198.27132234 771.77788284 -199.28141444 769.58810799 -200.25 767.375 C-200.62721191 766.52478271 -201.00442383 765.67456543 -201.39306641 764.79858398 C-209.94335231 744.85089192 -215.44095502 723.44721106 -218.0625 701.9375 C-218.19182419 700.88101761 -218.19182419 700.88101761 -218.32376099 699.80319214 C-222.49338175 664.83651302 -219.80835422 630.01583533 -209.875 596.1875 C-210.63425781 596.11402344 -211.39351562 596.04054688 -212.17578125 595.96484375 C-217.41452956 594.86398745 -222.13996073 592.82457087 -227.0625 590.75 C-228.12678223 590.30188965 -229.19106445 589.8537793 -230.28759766 589.39208984 C-251.9560957 580.12226553 -271.58966653 568.04683574 -289.875 553.1875 C-290.39916504 552.76629883 -290.92333008 552.34509766 -291.46337891 551.91113281 C-306.61440988 539.65319463 -321.06814489 525.71304963 -332.875 510.1875 C-333.721231 509.12802418 -334.57038013 508.07087492 -335.421875 507.015625 C-367.37738094 467.24801286 -367.37738094 467.24801286 -367.30078125 444.5234375 C-366.7272915 440.03022426 -364.87076713 437.37533229 -362.32421875 433.71875 C-360.64711402 430.78946735 -360.23793432 428.46107904 -359.8125 425.125 C-358.92916581 418.27032665 -356.79940046 412.72711093 -351.5 408.125 C-348.18558129 406.94127903 -345.36640967 406.98212296 -341.875 407.1875 C-341.70484375 406.59582031 -341.5346875 406.00414062 -341.359375 405.39453125 C-338.80493017 397.06541062 -335.28443853 392.70046287 -327.65234375 388.36328125 C-321.22106741 385.64061715 -315.06487761 386.50975589 -308.625 388.8125 C-303.94525563 390.89072513 -300.56105991 393.66170357 -296.875 397.1875 C-296.38773437 396.754375 -295.90046875 396.32125 -295.3984375 395.875 C-289.45186144 391.20423481 -284.6974041 390.40273122 -277.203125 390.7109375 C-272.67493067 391.35934091 -269.73017097 392.7685692 -265.875 395.1875 C-265.545 395.1875 -265.215 395.1875 -264.875 395.1875 C-264.89820313 394.38570312 -264.92140625 393.58390625 -264.9453125 392.7578125 C-265.81052192 338.24961933 -241.19949127 286.64033186 -208.875 244.1875 C-209.6484375 243.69121094 -210.421875 243.19492187 -211.21875 242.68359375 C-227.46869627 232.0849283 -239.83071456 218.98146633 -244.47583008 199.48754883 C-246.55237515 187.522331 -246.39548739 173.12560855 -240.875 162.1875 C-240.22144531 160.89199219 -240.22144531 160.89199219 -239.5546875 159.5703125 C-232.1197175 146.20361779 -221.19156156 137.46053059 -206.875 132.1875 C-192.81866619 128.22378168 -178.06883812 131.72290116 -165.5625 138.4375 C-163.99295866 139.34205735 -162.42756016 140.2540971 -160.875 141.1875 C-160.81614853 137.79641041 -160.81614853 137.79641041 -161.875 134.1875 C-164.33773759 132.57124623 -166.15604444 131.68012 -168.87109375 130.71484375 C-169.5991925 130.42963364 -170.32729126 130.14442352 -171.07745361 129.85057068 C-173.47991023 128.91579521 -175.8954048 128.02116004 -178.3125 127.125 C-179.98338779 126.48115891 -181.65305668 125.83414622 -183.3215332 125.18408203 C-186.77463521 123.84088204 -190.23220907 122.51030284 -193.69335938 121.18798828 C-200.9688832 118.39511384 -208.17620568 115.43870047 -215.37844849 112.46292114 C-217.51032301 111.58401106 -219.64526963 110.71298294 -221.78100586 109.84350586 C-242.60409477 101.33201819 -242.60409477 101.33201819 -245.5 96.75 C-247.4149382 91.7885692 -247.67694829 89.11217589 -245.625 84.1875 C-239.50864299 76.02753231 -225.30927202 72.92615488 -215.99029541 69.49664307 C-211.87500045 67.98010171 -207.76945376 66.43764482 -203.6640625 64.89453125 C-202.83296967 64.58231628 -202.00187683 64.27010132 -201.14559937 63.94842529 C-193.38163559 61.02123984 -185.67991788 57.95276072 -178 54.8125 C-177.35630463 54.54962189 -176.71260925 54.28674377 -176.04940796 54.01589966 C-169.10049799 51.17534271 -162.1628763 48.30763205 -155.22746277 45.43431091 C-151.29872426 43.80734365 -147.36859261 42.18377056 -143.4375 40.5625 C-142.64066803 40.23385956 -141.84383606 39.90521912 -141.02285767 39.56661987 C-121.53266113 31.54267899 -101.86529219 23.97843488 -82.19869995 16.39994812 C-74.14224993 13.29448682 -66.09817954 10.15876312 -58.0625 7 C-56.98025146 6.57702637 -55.89800293 6.15405273 -54.78295898 5.71826172 C-49.86294484 3.78922341 -44.96883636 1.81803258 -40.10546875 -0.25 C-38.74095581 -0.8219812 -38.74095581 -0.8219812 -37.34887695 -1.40551758 C-35.70408453 -2.0982 -34.06498502 -2.80469987 -32.43432617 -3.5300293 C-20.6059605 -8.48980174 -11.22781959 -4.53537468 0 0 Z " fill="#382815" transform="translate(506.875,121.8125)"/>
<path d="M0 0 C0.9964415 1.95807282 1.96103698 3.90877853 2.82421875 5.9296875 C6.92379276 15.1676416 14.07233058 18.94033543 23 23 C23.08126109 25.72977064 23.14061663 28.4571017 23.1875 31.1875 C23.22520508 32.34088867 23.22520508 32.34088867 23.26367188 33.51757812 C23.3237123 38.18071798 23.05718613 41.2256067 20 45 C14.85768269 47.75929222 9.52160136 47.3864814 4 46 C-1.014371 43.76573019 -5.36620757 41.21922967 -8.5625 36.6875 C-11.19476821 33.78525557 -11.92260532 33.46334201 -15.625 32.875 C-18.58002527 32.75207882 -19.60056493 32.72160586 -22.0625 34.4375 C-23.38098814 38.0413676 -23.77108033 41.25990007 -23 45 C-20.77767896 48.365229 -19.01729469 50.46581611 -15.43725586 52.34570312 C-12.40708895 54.40244068 -12.06406203 55.64965429 -11.19140625 59.15625 C-10.78849365 60.68258057 -10.78849365 60.68258057 -10.37744141 62.23974609 C-10.10851074 63.31562988 -9.83958008 64.39151367 -9.5625 65.5 C-5.57841074 80.14287767 -0.16605063 93.15139052 13 101.9375 C14.31281682 102.66341048 15.64684641 103.35238175 17 104 C17.66257812 104.31710937 18.32515625 104.63421875 19.0078125 104.9609375 C28.71618533 108.86578118 39.61604025 107.97876635 49.24609375 104.32421875 C60.52581744 98.90035161 67.28193284 89.31044858 72 78 C73.2428672 73.3774995 74.01957768 68.67274697 74.76367188 63.94726562 C76.0086195 57.45090255 77.92483336 54.32989043 83.24682617 50.34643555 C85.13080513 49.10253156 85.13080513 49.10253156 86 47 C86.23434712 45.0870598 86.23434712 45.0870598 86.25 43 C86.27578125 42.29875 86.3015625 41.5975 86.328125 40.875 C86.21984375 40.25625 86.1115625 39.6375 86 39 C82.26744552 36.51163035 80.41559065 36.45773448 76 37 C75.3915625 37.76699219 74.783125 38.53398438 74.15625 39.32421875 C71.66689304 42.41336643 69.50551073 43.56989582 65.9375 45.25 C64.89464844 45.75015625 63.85179687 46.2503125 62.77734375 46.765625 C56.39259436 49.6032914 50.21597482 50.11097312 43.5625 47.8125 C40.55920773 45.6882201 39.53845102 44.34368546 38 41 C37.64951149 38.05020511 37.71557046 35.15254972 37.8125 32.1875 C37.82603516 31.39923828 37.83957031 30.61097656 37.85351562 29.79882812 C37.88866544 27.86558831 37.94246639 25.93270318 38 24 C39.11375 23.608125 40.2275 23.21625 41.375 22.8125 C52.783946 18.54742172 52.783946 18.54742172 61 10 C62.19156679 7.04530186 63.16028439 4.07213029 64 1 C64.88300781 1.51949219 65.76601563 2.03898437 66.67578125 2.57421875 C88.25827345 15.17384223 107.87334942 19.45966459 132.60058594 20.92431641 C157.60061057 22.44612882 181.14201802 26.69087189 199 46 C204.73570092 53.10049445 209.12786779 59.92350189 211 69 C211.27070312 69.94552734 211.27070312 69.94552734 211.546875 70.91015625 C214.75529479 85.7076096 209.70495626 102.7884259 201.921875 115.35546875 C199.73111474 118.6608097 197.37426227 121.82458068 195 125 C194.50371094 125.76441406 194.00742187 126.52882813 193.49609375 127.31640625 C184.80746912 139.4141915 164.18217079 143.18190092 150.75561523 147.37084961 C148.99790102 147.8597299 148.99790102 147.8597299 148 149 C147.49518234 153.6123191 147.49518234 153.6123191 149.22998047 157.70166016 C152.70215841 160.24856254 156.89854029 159.46744039 161 159 C164.42286808 158.16432558 167.61584862 156.95463363 170.875 155.625 C171.76759521 155.27429443 172.66019043 154.92358887 173.57983398 154.56225586 C182.67364819 150.90032261 191.39017087 146.49888699 200.04321289 141.90454102 C202.07845697 140.96373261 203.77042289 140.27946876 206 140 C208.39665501 141.64560134 210.42120659 143.2515281 212.5625 145.1875 C213.49231689 146.01290283 213.49231689 146.01290283 214.44091797 146.85498047 C234.44437087 164.88329171 253.41763903 190.62528341 255.21875 218.36962891 C256.62160524 251.98116357 247.69865402 276.90646039 225.109375 302.109375 C212.09358638 315.78142187 196.04466311 324.41968135 178.9375 331.875 C170.45320129 335.57604773 163.41544443 339.97484756 156.1328125 345.63671875 C149.72676402 350.46921168 144.04922645 353.03860986 136 352 C132.99625377 351.01811777 131.57456199 350.04914118 129 348 C127.62932961 343.88798882 127.66877028 341.84463578 129.25 337.8125 C131 335 131 335 132.6875 333 C134.47348237 330.27850306 134.2170162 328.18290433 134 325 C129.84267525 324.58426753 127.57391838 324.66033402 123.9375 326.8125 C119.78491084 330.66287917 117.47402648 335.99053503 115 341 C111.10197732 341.30572727 108.71193992 341.41975649 105.296875 339.40625 C102.28231091 336.24813523 102.35749361 334.56093249 102.4375 330.25 C102.72254102 322.39915597 104.83139546 318.07218977 109.25 311.8125 C111.10266181 308.83500781 111.40314179 307.42670518 111 304 C106.70682179 303.47430471 103.8684396 303.63084522 100.4375 306.25 C95.84212149 310.55426856 93.50689225 316.3250571 91 322 C90.34 322 89.68 322 89 322 C85.77878231 314.81024211 86.12873805 307.78057711 88.625 300.375 C97.90825751 277.6968692 121.04285593 264.22241684 142.11962891 254.00488281 C157.05694601 246.74608739 169.00616378 238.16633582 175.15625 222.10546875 C176.51018776 217.1222256 176.95718127 212.09699026 176 207 C174.8073762 205.08244821 174.8073762 205.08244821 173 204 C167.95434998 204.19137484 167.95434998 204.19137484 164 207 C163.50479615 208.86059249 163.07656366 210.73935403 162.6875 212.625 C161.35771601 218.23292745 159.46997191 222.42907383 156 227 C155.37996094 227.83273437 154.75992187 228.66546875 154.12109375 229.5234375 C148.26977014 236.35536967 139.19577179 239.94253861 131.25 243.8125 C106.56272867 255.885921 84.57286855 272.37793168 75 299 C72.14263384 307.80719824 73.11952365 319.67575235 77 328 C79.59091274 331.92338214 82.12982904 334.17620331 86.125 336.5 C90.01776791 338.76896901 91.07662568 340.90237645 93 345 C97.10176663 349.56737257 101.94386025 352.78660527 108 354 C109.75049596 354 111.50143342 353.95716466 113.25 353.875 C115.82421875 353.79296875 115.82421875 353.79296875 118 354 C120.0625 356.1875 120.0625 356.1875 122 359 C129.8305421 364.28378635 136.61134356 365.83613989 146 365 C155.80428601 362.92937471 162.40307162 358.31916835 169.5859375 351.5703125 C173.77748213 348.09313115 178.7499772 346.34230211 183.75 344.3125 C202.72615462 336.31707301 219.01841141 326.7579415 234.13671875 312.65234375 C236 311 236 311 237 311 C240.18386462 326.5598545 238.19905793 343.59882111 235 359 C234.7824707 360.04752441 234.7824707 360.04752441 234.56054688 361.11621094 C232.07552676 372.30955913 227.23215854 382.28175022 222.01391602 392.44799805 C221.49756592 393.46933838 220.98121582 394.49067871 220.44921875 395.54296875 C219.97830811 396.45071045 219.50739746 397.35845215 219.0222168 398.29370117 C217.43650567 402.49184013 217.59274988 405.77824964 219 410 C111.75 410 4.5 410 -106 410 C-105.67 409.01 -105.34 408.02 -105 407 C-104.51555753 401.33471445 -105.53979143 398.41826079 -108.5 393.625 C-116.81781676 379.09212249 -120.68683032 362.26648845 -124.375 346.0625 C-124.6136377 345.02319336 -124.85227539 343.98388672 -125.09814453 342.91308594 C-128.60815271 326.65487019 -129.41286157 310.3998925 -129.375 293.8125 C-129.37412384 292.86745605 -129.37324768 291.92241211 -129.37234497 290.94873047 C-129.32846731 276.57021809 -128.50464192 262.99372968 -125 249 C-124.48542772 246.78912052 -123.97112002 244.57817946 -123.45703125 242.3671875 C-120.60494371 230.49305461 -117.2354181 219.00686216 -112.57714844 207.70849609 C-110.6782272 203.07524233 -109.46746221 198.99516759 -109 194 C-111.17817463 192.06384477 -112.60156374 191.06972634 -115.5 190.5625 C-118.91171451 191.15955004 -119.78447082 192.34051936 -122 195 C-123.27929814 197.51366517 -124.2708228 200.10722072 -125.25 202.75 C-125.518125 203.44738281 -125.78625 204.14476562 -126.0625 204.86328125 C-126.71785959 206.57189733 -127.36025268 208.28547719 -128 210 C-134.24600769 209.47297084 -139.4036981 208.00146111 -145.1875 205.625 C-146.04972168 205.2734082 -146.91194336 204.92181641 -147.80029297 204.55957031 C-168.9693129 195.71270159 -188.6203153 184.00167835 -206 169 C-207.07020093 168.1115756 -208.14189876 167.22495222 -209.21484375 166.33984375 C-221.4206503 156.19121513 -233.07327801 145.18365862 -242.8828125 132.671875 C-244.79579527 130.25770486 -246.78958024 127.94006802 -248.82250977 125.62695312 C-254.05923593 119.62499619 -258.7824166 113.31911238 -263.375 106.8125 C-263.95789795 105.99338135 -264.5407959 105.1742627 -265.14135742 104.33032227 C-272.4324028 93.85016671 -277.52993873 83.98349895 -277 71 C-272.96135947 71.98503428 -270.47418864 73.31641206 -267.5 76.125 C-264.8698099 78.53844838 -264.28728711 78.96865959 -260.5625 79.375 C-259.716875 79.25125 -258.87125 79.1275 -258 79 C-257.53783889 75.91892591 -257.55623835 73.75305008 -259.16015625 71.03125 C-260.71476965 68.96373346 -262.3263347 66.97225348 -264 65 C-264.73089844 64.12214844 -264.73089844 64.12214844 -265.4765625 63.2265625 C-265.91742188 62.69804688 -266.35828125 62.16953125 -266.8125 61.625 C-269.95822873 57.85012553 -270.30589723 55.89435562 -270 51 C-268 49 -268 49 -264.9375 48.5 C-258.65343051 49.29797708 -254.05556989 52.83023178 -249.75 57.375 C-248.06491454 59.26086726 -248.06491454 59.26086726 -245.3125 59.3125 C-243.04142874 59.24344314 -243.04142874 59.24344314 -242 58 C-241.43357686 52.22248399 -242.42662744 49.51373376 -246 45 C-246.54011719 44.40960937 -247.08023438 43.81921875 -247.63671875 43.2109375 C-248.18972656 42.60507812 -248.74273437 41.99921875 -249.3125 41.375 C-249.84488281 40.82585938 -250.37726563 40.27671875 -250.92578125 39.7109375 C-252 38 -252 38 -251.76953125 35.95703125 C-250.61212394 33.01357409 -249.27269732 31.2128895 -247 29 C-242.88721489 27.70523432 -240.90892116 27.56447528 -237 29.4375 C-229.75421105 35.6266114 -225.26001358 42.51118172 -221 51 C-218.525 50.505 -218.525 50.505 -216 50 C-216.00902344 49.20335937 -216.01804688 48.40671875 -216.02734375 47.5859375 C-215.79440435 39.26088598 -215.79440435 39.26088598 -213.65625 35.8671875 C-210.72198735 33.1063131 -207.89626003 31.59808941 -203.875 31.125 C-199.31055022 32.15568221 -199.31055022 32.15568221 -197.25 35 C-193.31473308 42.46116044 -191.84304886 51.40020709 -190.33203125 59.64453125 C-188.83820279 67.42149276 -186.73250485 71.60041739 -181 77 C-179.66182217 78.37008669 -178.323707 79.74023567 -176.98706055 81.11181641 C-173.51706191 84.64544656 -169.99202107 88.07412297 -166.1875 91.25 C-162.19618053 94.64425734 -158.72732179 98.46176071 -155.1875 102.3125 C-135.80725487 123.2710993 -113.77325209 137.19662362 -87.3125 147.625 C-86.21365479 148.06344238 -85.11480957 148.50188477 -83.98266602 148.95361328 C-78.13133514 151.17957035 -73.27660499 152.86221116 -67 152 C-64.5705484 148.3558226 -64.83820425 146.28758728 -65 142 C-69.872831 139.75959137 -74.78009258 137.66673931 -79.78515625 135.73828125 C-92.07890483 131.00041028 -103.86648096 126.09334132 -115 119 C-115.59304932 118.62464111 -116.18609863 118.24928223 -116.79711914 117.86254883 C-121.20867893 114.91972219 -124.20040412 111.67167337 -127.1875 107.3125 C-127.83138672 106.38667114 -127.83138672 106.38667114 -128.48828125 105.44213867 C-137.48803884 92.15817899 -139.48798582 76.77036636 -138 61 C-136.38502663 53.41832861 -132.03629815 47.735784 -127 42 C-126.49984375 41.40574219 -125.9996875 40.81148437 -125.484375 40.19921875 C-108.60372616 21.65608176 -83.64827389 18.31006589 -60 17 C-37.45631388 15.75069857 -19.77702991 11.023711 0 0 Z " fill="#EBB775" transform="translate(431,494)"/>
<path d="M0 0 C5.50834327 3.9681815 10.65000617 8.88294464 12.01255798 15.81221008 C12.16626056 18.30262261 12.17696686 20.7514793 12.12890625 23.24609375 C12.13454086 24.15040634 12.14017548 25.05471893 12.14598083 25.98643494 C12.16233192 28.85347429 12.14697015 31.71895374 12.125 34.5859375 C12.10835227 37.45634365 12.09937717 40.3257289 12.11473083 43.19615173 C12.12394113 44.97477063 12.11508116 46.75360767 12.08509827 48.53199768 C12.11078292 54.37549197 13.20684152 57.71169527 16.5625 62.5234375 C48.52030692 93.41259164 104.59805252 96.73619999 146.125 96.7734375 C146.91842804 96.77444458 147.71185608 96.77545166 148.52932739 96.77648926 C192.005366 96.73965572 246.31443347 91.54834718 280.5625 61.5234375 C284.28997274 56.2067967 284.67430998 52.08271688 284.6328125 45.66796875 C284.6414026 44.30923202 284.65188071 42.95050615 284.6640625 41.59179688 C284.6806795 39.46946377 284.68766412 37.34956755 284.66210938 35.22729492 C284.57647149 26.90193041 284.84332606 20.59982483 290.7578125 14.2434082 C291.35335938 13.67581787 291.94890625 13.10822754 292.5625 12.5234375 C293.34496094 11.70230469 294.12742187 10.88117188 294.93359375 10.03515625 C303.57940112 2.40265711 309.18994355 -0.21086478 321 0.140625 C325.67820312 0.64332665 328.80109723 1.75005297 332.5625 4.5234375 C333.46355469 5.1421875 333.46355469 5.1421875 334.3828125 5.7734375 C341.44855529 11.15686058 346.36732355 19.77887973 348.16796875 28.43359375 C350.19632134 44.3190086 347.17646913 59.5358392 337.5625 72.5234375 C330.8214278 80.69411789 323.56014677 86.27903671 314.08642578 91.05126953 C309.7421709 93.31049658 309.7421709 93.31049658 307.3125 97.4609375 C307.64714934 101.56039191 309.06034348 103.05429 311.75 106.1484375 C343.57603168 144.72336933 359.40620377 201.99353828 355.33105469 251.32519531 C351.87211181 284.80238452 336.86176674 316.70276583 310.86914062 338.52783203 C303.63887553 344.29954841 295.55755379 348.90566289 287.5625 353.5234375 C287.5625 349.70324986 288.50549532 349.25514815 291.125 346.5859375 C303.41983386 333.09637596 308.99770003 316.034085 308.76953125 297.92578125 C307.89807207 283.60425397 300.78603484 272.30166411 290.5625 262.5234375 C274.27535027 249.10238518 255.55578584 245.29734277 235.125 243.8984375 C232.18837842 243.68257159 229.25232631 243.45956727 226.31640625 243.234375 C225.59671661 243.17952438 224.87702698 243.12467377 224.13552856 243.06816101 C202.1381224 241.34320937 180.2996849 237.84085667 162.5625 223.5234375 C162.34335937 224.09191406 162.12421875 224.66039062 161.8984375 225.24609375 C158.41447871 233.72939179 155.05342519 238.72985621 146.4375 242.3984375 C143.17680059 243.65127621 139.97139841 244.75684312 136.5625 245.5234375 C136.48123891 248.25320814 136.42188337 250.9805392 136.375 253.7109375 C136.34986328 254.47986328 136.32472656 255.24878906 136.29882812 256.04101562 C136.23862383 260.71688251 136.53255968 263.71771536 139.5625 267.5234375 C144.03110482 270.36709511 149.46140229 270.22096329 154.5625 269.5234375 C162.10242481 267.1695555 169.06010935 264.27702347 173.5625 257.5234375 C177.12103339 257.1280449 179.6714459 257.15787685 183 258.5234375 C184.96601718 261.03993949 185.29513831 263.15116839 185.16015625 266.3203125 C183.99726503 270.60704874 180.783906 273.6008497 177.5625 276.5234375 C176.9025 276.8534375 176.2425 277.1834375 175.5625 277.5234375 C174.90961052 279.54697327 174.90961052 279.54697327 174.484375 282.01171875 C174.29649414 282.94016602 174.10861328 283.86861328 173.91503906 284.82519531 C173.71620117 285.81874023 173.51736328 286.81228516 173.3125 287.8359375 C170.09833956 302.7318757 164.78850832 315.52570761 151.625 324.4609375 C141.83080129 329.88719297 131.05688034 331.2883257 120.12890625 328.71484375 C107.31843845 324.35415448 98.033819 314.79741246 92.0625 302.8359375 C90.39174148 299.05671376 89.18722981 295.27350576 88.12890625 291.2890625 C87.87882813 290.35280029 87.62875 289.41653809 87.37109375 288.4519043 C86.88080076 286.56854389 86.4126132 284.67926396 85.96875 282.78442383 C84.52617144 277.16143313 84.52617144 277.16143313 80.51953125 273.03515625 C79.54371094 272.53628906 78.56789063 272.03742188 77.5625 271.5234375 C74.5443516 268.66413902 73.29362322 266.62202254 73.0625 262.5234375 C73.24399586 259.6250036 73.72420159 258.1789428 75 255.4609375 C77.8364872 253.31627645 78.57540275 253.18753829 82 253.3359375 C85.6569722 253.96522168 86.39554865 254.33936294 89 257.2109375 C89.37640625 257.74460937 89.7528125 258.27828125 90.140625 258.828125 C94.27209541 263.75410895 100.46350772 266.70429529 106.75 267.5859375 C111.45250179 267.80103616 114.52593248 266.92820113 118.5625 264.5234375 C119.46488747 261.81627508 119.68101302 260.28566982 119.66015625 257.51171875 C119.65693359 256.75439453 119.65371094 255.99707031 119.65039062 255.21679688 C119.64201172 254.43111328 119.63363281 253.64542969 119.625 252.8359375 C119.61823242 251.64000977 119.61823242 251.64000977 119.61132812 250.41992188 C119.5995585 248.45439493 119.58162348 246.48890665 119.5625 244.5234375 C118.77746094 244.183125 117.99242187 243.8428125 117.18359375 243.4921875 C108.46459601 239.46968057 102.33870514 235.43924237 98.87890625 226.265625 C98.22728516 224.41324219 98.22728516 224.41324219 97.5625 222.5234375 C97.07595947 222.80018311 96.58941895 223.07692871 96.08813477 223.36206055 C75.60872647 234.88877448 57.42911897 238.98571105 34.05444336 239.80639648 C9.55935356 240.71113332 -12.54083172 246.36567221 -29.98046875 264.78125 C-36.52767498 272.60981294 -40.00683073 280.93378897 -39.8125 291.1484375 C-39.80234863 291.93041504 -39.79219727 292.71239258 -39.78173828 293.51806641 C-39.36923208 309.20929067 -34.46573133 322.43266213 -24.4375 334.5234375 C-29.69682347 333.01502733 -32.91606181 329.60008799 -36.75 325.8984375 C-37.41789551 325.26107666 -38.08579102 324.62371582 -38.77392578 323.96704102 C-40.08788235 322.7102478 -41.39886636 321.45033786 -42.70654297 320.18701172 C-44.08074153 318.86630805 -45.47625188 317.56778577 -46.87890625 316.27734375 C-66.46410521 297.87912655 -75.59680849 268.90129942 -76.7890625 242.5859375 C-77.45865325 214.67730471 -70.55161897 189.30487669 -60.4375 163.5234375 C-59.97859375 162.32589844 -59.5196875 161.12835938 -59.046875 159.89453125 C-50.17793879 137.90058888 -35.72022245 118.87337612 -21.34765625 100.23046875 C-20.86312988 99.59834473 -20.37860352 98.9662207 -19.87939453 98.31494141 C-18.4375 96.5234375 -18.4375 96.5234375 -16.91357422 94.91552734 C-14.50346063 92.35597509 -13.47425761 90.9051511 -13.1328125 87.359375 C-14.2497899 84.1799601 -14.2497899 84.1799601 -17.8671875 82.6875 C-19.34243383 82.15600829 -20.82480601 81.64401974 -22.3125 81.1484375 C-36.48496447 75.8509701 -46.76858154 67.6450341 -53.375 53.7734375 C-58.30662455 42.60623342 -57.80509417 28.805103 -53.4375 17.5234375 C-47.99887868 7.58776495 -39.46943604 -0.45324075 -28.58203125 -4.09765625 C-18.87898669 -5.81203753 -8.51437284 -5.15774509 0 0 Z " fill="#C27F41" transform="translate(333.4375,272.4765625)"/>
<path d="M0 0 C0.68380737 0.00248749 1.36761475 0.00497498 2.07214355 0.00753784 C37.58275549 0.20707643 67.12693349 13.91144164 92.45654297 38.80419922 C96.29302518 42.71151658 99.65125063 46.94066735 102.9375 51.3125 C103.33533691 51.83537598 103.73317383 52.35825195 104.14306641 52.89697266 C121.01758817 75.19662354 133.41990841 100.87946882 133.9375 129.3125 C133.98777344 130.6221875 134.03804687 131.931875 134.08984375 133.28125 C134.88804481 161.18288287 125.7583191 188.35551355 106.56640625 208.84375 C92.70051496 222.14043393 73.11102394 230.12582553 53.9375 230.6875 C43.42410611 230.35017185 33.69236061 228.81342311 25.9375 221.3125 C25.12345703 220.57 25.12345703 220.57 24.29296875 219.8125 C20.015071 215.07845754 21.51137962 205.65676045 21.75390625 199.60693359 C22.66386548 188.23486327 28.47460242 176.0449159 36.9375 168.3125 C43.22182003 163.60170334 49.38451249 160.41743095 56.9375 158.3125 C57.18704005 156.87839632 57.41142642 155.43989928 57.625 154 C57.75261719 153.19949219 57.88023437 152.39898438 58.01171875 151.57421875 C58.14603394 149.25776331 58.14603394 149.25776331 56.671875 147.5546875 C54.31784336 145.86869187 52.21609617 145.71852325 49.3671875 145.84375 C37.91101535 148.05394398 26.97411308 156.85282925 20.125 166 C7.1613908 186.17597691 5.48671111 208.85898466 10.37646484 231.84521484 C11.22096501 235.55910462 12.16090846 239.24766052 13.09277344 242.94042969 C25.8898571 294.01692964 24.75801606 347.89710454 -2.3515625 394.34375 C-4.44706538 397.76918886 -6.72142945 401.04955711 -9.0625 404.3125 C-9.81917969 405.38371094 -10.57585937 406.45492188 -11.35546875 407.55859375 C-31.32881398 435.07760821 -59.93115735 452.39443603 -93.0625 459.3125 C-92.7679895 458.41664185 -92.7679895 458.41664185 -92.4675293 457.50268555 C-83.76464899 430.75469109 -80.2954171 404.40746178 -84.0625 376.3125 C-84.80912041 369.47100438 -83.61733096 365.92606533 -79.84765625 360.16015625 C-64.99332546 336.46473581 -61.34949221 306.41905696 -67.22167969 279.35009766 C-73.67546439 252.32418938 -89.91492868 229.51261427 -110.6875 211.3984375 C-112.90728627 209.44882259 -114.99813588 207.42465033 -117.0625 205.3125 C-116.09763672 204.56419922 -116.09763672 204.56419922 -115.11328125 203.80078125 C-86.29188219 180.89989783 -67.8400295 149.99124962 -63.53417969 113.109375 C-63.03254462 108.45627008 -62.85267445 103.83770695 -62.7890625 99.16015625 C-62.77667038 98.31047775 -62.76427826 97.46079926 -62.75151062 96.58537292 C-62.71930307 93.84854132 -62.70033469 91.11198916 -62.6875 88.375 C-62.68293793 87.44030884 -62.67837585 86.50561768 -62.67367554 85.54260254 C-62.64798871 70.82452562 -63.82832175 57.17843331 -67.4296875 42.85058594 C-68.19726676 39.77197716 -68.84773828 36.67661129 -69.48706055 33.56933594 C-69.98689574 31.1447106 -70.52221832 28.7283937 -71.0625 26.3125 C-51.98369866 7.32161941 -26.43985548 -0.11494182 0 0 Z " fill="#A86D38" transform="translate(765.0625,419.6875)"/>
<path d="M0 0 C1.87112751 0.83633949 3.74356417 1.66975517 5.6171875 2.50048828 C6.56883789 2.92485168 7.52048828 3.34921509 8.50097656 3.78643799 C12.91355213 5.7125818 17.38662756 7.47031301 21.875 9.2109375 C22.75584763 9.5536821 23.63669525 9.8964267 24.54423523 10.2495575 C26.36612839 10.95714166 28.18849842 11.66349909 30.01132202 12.36868286 C35.01745438 14.30607599 40.01845104 16.25664124 45.01953125 18.20703125 C46.55707817 18.80642265 46.55707817 18.80642265 48.12568665 19.41792297 C58.78585188 23.57963998 69.4109239 27.82769032 80.03125 32.08984375 C94.7847048 38.00960643 109.55435922 43.88543909 124.34375 49.71484375 C143.72954718 57.35721897 163.04965011 65.15662836 182.34375 73.02734375 C182.27661133 74.83081055 182.27661133 74.83081055 181.34375 77.02734375 C179.01501839 78.2896993 176.87932845 79.24483346 174.41796875 80.171875 C173.69674332 80.45805191 172.97551788 80.74422882 172.23243713 81.03907776 C170.66360423 81.6596016 169.09196089 82.27305525 167.51794434 82.88031006 C164.1326682 84.18657696 160.7610489 85.52654195 157.38803101 86.86407471 C155.63518837 87.55855667 153.88161608 88.25119958 152.12734985 88.94207764 C144.301915 92.02614149 136.53200767 95.23390711 128.77566528 98.48721313 C125.82431881 99.72505565 122.87109478 100.95838726 119.91795349 102.19194031 C118.40644547 102.82334058 116.89502211 103.45494354 115.38368225 104.08674622 C46.61287401 132.83269878 46.61287401 132.83269878 18.54370117 143.48193359 C13.37080355 145.45058645 8.22984163 147.46975112 3.125 149.609375 C2.12936035 150.02606445 1.1337207 150.44275391 0.10791016 150.87207031 C-1.75041727 151.65535046 -3.60524878 152.44700517 -5.45556641 153.24902344 C-6.70345947 153.77544434 -6.70345947 153.77544434 -7.9765625 154.3125 C-9.04801514 154.77474976 -9.04801514 154.77474976 -10.14111328 155.24633789 C-17.21185482 157.44196031 -21.87082355 157.16853026 -28.58203125 154.44921875 C-29.68694412 154.02582214 -29.68694412 154.02582214 -30.81417847 153.59387207 C-33.20607273 152.67210225 -35.58712257 151.72528895 -37.96875 150.77734375 C-39.63595446 150.1285446 -41.30368525 149.48109643 -42.97192383 148.83496094 C-53.73941917 144.64730816 -64.453 140.32123864 -75.13549805 135.92163086 C-82.31570465 132.96469369 -89.52748213 130.1112549 -96.78125 127.33984375 C-108.06837256 123.02696374 -119.33639722 118.66731472 -130.59375 114.27734375 C-131.47037292 113.9356012 -132.34699585 113.59385864 -133.25018311 113.24176025 C-146.21642648 108.1840184 -159.14843858 103.04581365 -172.05914307 97.84811401 C-183.51543354 93.23861523 -195.02636091 88.79394693 -206.60058594 84.48901367 C-207.70821289 84.07498291 -208.81583984 83.66095215 -209.95703125 83.234375 C-210.91778564 82.87835205 -211.87854004 82.5223291 -212.8684082 82.15551758 C-215.88740474 80.93380088 -218.76204721 79.51841009 -221.65625 78.02734375 C-218.46256591 74.49174805 -214.65851188 73.37580884 -210.25 71.8671875 C-208.47779781 71.24179338 -206.70575096 70.61595891 -204.93383789 69.98974609 C-203.99396027 69.66077332 -203.05408264 69.33180054 -202.08572388 68.99285889 C-185.40278569 63.1384585 -168.98039577 56.83967604 -152.71875 49.90234375 C-139.60290485 44.31407884 -126.45732821 38.93367477 -113.09375 33.96484375 C-99.81871611 29.02493707 -86.65184378 23.86437229 -73.53125 18.52734375 C-71.76832561 17.81181185 -70.00538624 17.09631684 -68.24243164 16.38085938 C-60.48436357 13.229002 -52.7327219 10.06239311 -44.99362183 6.86422729 C-41.77030645 5.53503524 -38.54264641 4.2166362 -35.31402588 2.90039062 C-33.81167124 2.28468271 -32.31139238 1.66388118 -30.81341553 1.03759766 C-28.75298865 0.17636629 -26.68619052 -0.66743615 -24.6171875 -1.5078125 C-23.46009277 -1.98613525 -22.30299805 -2.46445801 -21.11083984 -2.95727539 C-12.83540618 -5.38960957 -7.52566714 -3.50499858 0 0 Z " fill="#3E9B61" transform="translate(501.65625,134.97265625)"/>
<path d="M0 0 C8.00555808 2.74162948 12.19180947 10.70346154 15.99609375 17.68359375 C16.98958513 19.35414834 17.98784455 21.02190445 18.99609375 22.68359375 C20.64609375 22.35359375 22.29609375 22.02359375 23.99609375 21.68359375 C23.98707031 20.88695312 23.97804687 20.0903125 23.96875 19.26953125 C24.2016894 10.94447973 24.2016894 10.94447973 26.33984375 7.55078125 C29.2741064 4.78990685 32.09983372 3.28168316 36.12109375 2.80859375 C40.68554353 3.83927596 40.68554353 3.83927596 42.74609375 6.68359375 C46.68136067 14.14475419 48.15304489 23.08380084 49.6640625 31.328125 C51.15789096 39.10508651 53.2635889 43.28401114 58.99609375 48.68359375 C60.33427158 50.05368044 61.67238675 51.42382942 63.0090332 52.79541016 C66.47903184 56.32904031 70.00407268 59.75771672 73.80859375 62.93359375 C77.79991322 66.32785109 81.26877196 70.14535446 84.80859375 73.99609375 C106.05759726 96.97564573 139.58083378 122.04406544 171.99609375 124.68359375 C171.67898438 125.25722656 171.361875 125.83085938 171.03515625 126.421875 C169.6855995 128.87866477 168.35154739 131.34350459 167.01904297 133.80957031 C165.92405297 135.81557108 164.80545001 137.80749431 163.6875 139.80078125 C150.05032441 164.47718978 142.53754165 190.993301 137.99609375 218.68359375 C137.8760498 219.41304199 137.75600586 220.14249023 137.63232422 220.89404297 C134.1304895 243.31935414 135.22555797 266.38706812 138.99609375 288.68359375 C139.20105469 289.98554687 139.40601563 291.2875 139.6171875 292.62890625 C144.91864441 322.5936627 157.67168557 357.47920059 183.49609375 375.80859375 C188.36814972 379.03093456 190.91750476 379.81389857 196.84422302 379.85768127 C197.55687586 379.86418023 198.2695287 379.87067918 199.00377709 379.87737507 C201.40411809 379.89783747 203.80444209 379.91100894 206.20483398 379.92407227 C207.9212518 379.9368809 209.6376672 379.95001631 211.3540802 379.9634552 C227.04674845 380.07951887 242.74005642 380.13602462 258.433074 380.18022251 C270.03023472 380.21343342 281.62661211 380.27292377 293.22343677 380.36773354 C301.3798342 380.43215608 309.5360188 380.46577371 317.69266087 380.47697204 C322.56208586 380.48451974 327.43056545 380.50559055 332.29971123 380.55999947 C336.88748962 380.61065585 341.47382795 380.62297852 346.06184196 380.60674858 C347.73918435 380.60734947 349.41658932 380.62148965 351.09367752 380.6506958 C360.61643713 380.80776196 367.29281428 380.11213685 374.92062473 373.71734524 C377.64546892 371.04727121 379.77880104 368.57466255 381.87109375 365.37109375 C382.23275635 364.8205835 382.59441895 364.27007324 382.96704102 363.70288086 C386.22645223 358.61146838 388.78691908 353.29935288 390.99609375 347.68359375 C391.42921875 346.61109375 391.86234375 345.53859375 392.30859375 344.43359375 C393.13801251 341.11591869 393.13232083 338.08927066 392.99609375 334.68359375 C394.06859375 334.22984375 395.14109375 333.77609375 396.24609375 333.30859375 C400.13536029 331.40090515 402.8970307 329.00259683 406.05859375 326.05859375 C412.30595769 320.46229927 419.45524796 317.61226928 427.13623047 314.43725586 C444.90264454 307.06602279 460.04409859 297.48090981 474.1328125 284.3359375 C475.99609375 282.68359375 475.99609375 282.68359375 476.99609375 282.68359375 C480.17995837 298.24344825 478.19515168 315.28241486 474.99609375 330.68359375 C474.77856445 331.73111816 474.77856445 331.73111816 474.55664062 332.79980469 C472.07162051 343.99315288 467.22825229 353.96534397 462.01000977 364.1315918 C461.49365967 365.15293213 460.97730957 366.17427246 460.4453125 367.2265625 C459.97440186 368.1343042 459.50349121 369.0420459 459.01831055 369.97729492 C457.43259942 374.17543388 457.58884363 377.46184339 458.99609375 381.68359375 C351.74609375 381.68359375 244.49609375 381.68359375 133.99609375 381.68359375 C134.32609375 380.69359375 134.65609375 379.70359375 134.99609375 378.68359375 C135.48053622 373.0183082 134.45630232 370.10185454 131.49609375 365.30859375 C123.17827699 350.77571624 119.30926343 333.9500822 115.62109375 317.74609375 C115.38245605 316.70678711 115.14381836 315.66748047 114.89794922 314.59667969 C111.38794104 298.33846394 110.58323218 282.08348625 110.62109375 265.49609375 C110.62196991 264.5510498 110.62284607 263.60600586 110.62374878 262.63232422 C110.66762644 248.25381184 111.49145183 234.67732343 114.99609375 220.68359375 C115.51066603 218.47271427 116.02497373 216.26177321 116.5390625 214.05078125 C119.39115004 202.17664836 122.76067565 190.69045591 127.41894531 179.39208984 C129.31786655 174.75883608 130.52863154 170.67876134 130.99609375 165.68359375 C128.81791912 163.74743852 127.39453001 162.75332009 124.49609375 162.24609375 C121.08437924 162.84314379 120.21162293 164.02411311 117.99609375 166.68359375 C116.71679561 169.19725892 115.72527095 171.79081447 114.74609375 174.43359375 C114.47796875 175.13097656 114.20984375 175.82835937 113.93359375 176.546875 C113.27823416 178.25549108 112.63584107 179.96907094 111.99609375 181.68359375 C105.75008606 181.15656459 100.59239565 179.68505486 94.80859375 177.30859375 C93.94637207 176.95700195 93.08415039 176.60541016 92.19580078 176.24316406 C71.02678085 167.39629534 51.37577845 155.6852721 33.99609375 140.68359375 C32.92589282 139.79516935 31.85419499 138.90854597 30.78125 138.0234375 C18.57544345 127.87480888 6.92281574 116.86725237 -2.88671875 104.35546875 C-4.79970152 101.94129861 -6.79348649 99.62366177 -8.82641602 97.31054688 C-14.06314218 91.30858994 -18.78632285 85.00270613 -23.37890625 78.49609375 C-23.9618042 77.6769751 -24.54470215 76.85785645 -25.14526367 76.01391602 C-32.43630905 65.53376046 -37.53384498 55.6670927 -37.00390625 42.68359375 C-32.96526572 43.66862803 -30.47809489 45.00000581 -27.50390625 47.80859375 C-24.87371615 50.22204213 -24.29119336 50.65225334 -20.56640625 51.05859375 C-19.72078125 50.93484375 -18.87515625 50.81109375 -18.00390625 50.68359375 C-17.54174514 47.60251966 -17.5601446 45.43664383 -19.1640625 42.71484375 C-20.7186759 40.64732721 -22.33024095 38.65584723 -24.00390625 36.68359375 C-24.73480469 35.80574219 -24.73480469 35.80574219 -25.48046875 34.91015625 C-25.92132813 34.38164063 -26.3621875 33.853125 -26.81640625 33.30859375 C-29.96213498 29.53371928 -30.30980348 27.57794937 -30.00390625 22.68359375 C-28.00390625 20.68359375 -28.00390625 20.68359375 -24.94140625 20.18359375 C-18.65733676 20.98157083 -14.05947614 24.51382553 -9.75390625 29.05859375 C-8.06882079 30.94446101 -8.06882079 30.94446101 -5.31640625 30.99609375 C-3.04533499 30.92703689 -3.04533499 30.92703689 -2.00390625 29.68359375 C-1.43748311 23.90607774 -2.43053369 21.19732751 -6.00390625 16.68359375 C-6.54402344 16.09320312 -7.08414063 15.5028125 -7.640625 14.89453125 C-8.19363281 14.28867187 -8.74664062 13.6828125 -9.31640625 13.05859375 C-9.84878906 12.50945313 -10.38117188 11.9603125 -10.9296875 11.39453125 C-12.00390625 9.68359375 -12.00390625 9.68359375 -11.79296875 7.640625 C-9.47282599 1.88621151 -6.22706577 -1.0486327 0 0 Z " fill="#C27E41" transform="translate(191.00390625,522.31640625)"/>
<path d="M0 0 C9.51582775 1.00730609 19.59939946 13.9007207 25.43359375 20.93359375 C46.48411805 47.30112763 55.46603513 73.7715357 51.70263672 107.67919922 C47.43159448 134.58734017 27.96384686 159.7285842 6.58984375 175.49609375 C-2.96313967 182.30020554 -13.34523346 187.20440462 -24.0625 191.875 C-32.54679871 195.57604773 -39.58455557 199.97484756 -46.8671875 205.63671875 C-53.27323598 210.46921168 -58.95077355 213.03860986 -67 212 C-70.00374623 211.01811777 -71.42543801 210.04914118 -74 208 C-75.37067039 203.88798882 -75.33122972 201.84463578 -73.75 197.8125 C-72 195 -72 195 -70.3125 193 C-68.52651763 190.27850306 -68.7829838 188.18290433 -69 185 C-73.15732475 184.58426753 -75.42608162 184.66033402 -79.0625 186.8125 C-83.21508916 190.66287917 -85.52597352 195.99053503 -88 201 C-91.89802268 201.30572727 -94.28806008 201.41975649 -97.703125 199.40625 C-100.71768909 196.24813523 -100.64250639 194.56093249 -100.5625 190.25 C-100.27745898 182.39915597 -98.16860454 178.07218977 -93.75 171.8125 C-91.89733819 168.83500781 -91.59685821 167.42670518 -92 164 C-96.29317821 163.47430471 -99.1315604 163.63084522 -102.5625 166.25 C-107.15787851 170.55426856 -109.49310775 176.3250571 -112 182 C-112.66 182 -113.32 182 -114 182 C-117.22121769 174.81024211 -116.87126195 167.78057711 -114.375 160.375 C-105.09174249 137.6968692 -81.95714407 124.22241684 -60.88037109 114.00488281 C-45.94305399 106.74608739 -33.99383622 98.16633582 -27.84375 82.10546875 C-26.48981224 77.1222256 -26.04281873 72.09699026 -27 67 C-28.20042898 65.08497595 -28.20042898 65.08497595 -30 64 C-34.20126923 64.22916014 -37.32282588 65.03614657 -41 67 C-41.21914063 65.76507812 -41.43828125 64.53015625 -41.6640625 63.2578125 C-44.19801518 49.52449894 -47.57212961 36.22521534 -53.4375 23.5 C-53.953125 22.345 -54.46875 21.19 -55 20 C-54.67 19.34 -54.34 18.68 -54 18 C-53.34 18.33 -52.68 18.66 -52 19 C-44.6987839 19.77583083 -38.84127146 18.36582188 -32.125 15.625 C-31.23458008 15.27429443 -30.34416016 14.92358887 -29.42675781 14.56225586 C-13.6999169 8.93145953 -13.6999169 8.93145953 0 0 Z " fill="#C27E41" transform="translate(634,634)"/>
<path d="M0 0 C11.76699823 4.02580601 23.38719761 8.22863746 34.875 13 C37.63016129 14.13220751 40.38731236 15.25953274 43.14453125 16.38671875 C44.20954109 16.82270638 44.20954109 16.82270638 45.29606628 17.26750183 C59.45353137 23.05596364 73.67770306 28.67637963 87.94036865 34.20007324 C89.84845174 34.94114116 91.75370002 35.6894969 93.65869141 36.43847656 C96.72067371 37.63425885 99.79339251 38.79343493 102.875 39.9375 C103.69170166 40.26145752 104.50840332 40.58541504 105.34985352 40.91918945 C121.66365139 46.77111307 134.9006043 41.46462897 149.9375 35 C151.90615807 34.17865009 153.8761562 33.36050549 155.84741211 32.54541016 C158.88221015 31.28971747 161.91586815 30.03176278 164.94526672 28.76309204 C175.24689455 24.4493503 185.64554979 20.40024751 196.0625 16.375 C199.26247621 15.13475725 202.46143262 13.89190652 205.66015625 12.6484375 C206.79296272 12.20948151 206.79296272 12.20948151 207.94865417 11.76165771 C212.15245663 10.12790664 216.34128251 8.46202159 220.51904297 6.76269531 C221.43342636 6.3918985 222.34780975 6.02110168 223.28990173 5.6390686 C225.05817261 4.92030632 226.82467051 4.19716251 228.58912659 3.46908569 C229.78142128 2.98479599 229.78142128 2.98479599 230.99780273 2.49072266 C231.69945053 2.20250641 232.40109833 1.91429016 233.12400818 1.61734009 C235 1 235 1 238 1 C238.16249384 8.84949978 238.28671989 16.69860266 238.3626852 24.54936409 C238.39915408 28.19529931 238.44857982 31.84008053 238.52807617 35.48535156 C238.60437543 39.00622691 238.64603801 42.52599563 238.6641407 46.04763412 C238.68329 48.03872985 238.7379001 50.0293827 238.79307556 52.01980591 C238.79690362 60.85883749 238.79690362 60.85883749 236.51864624 64.12129211 C234.74466942 65.68051447 233.0614163 66.85611342 231 68 C230.07242638 68.55849892 230.07242638 68.55849892 229.12611389 69.12828064 C227.36974665 70.15698134 225.58397539 71.05489057 223.75 71.9375 C223.06019043 72.27249512 222.37038086 72.60749023 221.65966797 72.95263672 C189.22759468 88.33810472 154.73619928 92.23755702 119.25 92.3125 C117.77933578 92.31814972 117.77933578 92.31814972 116.27896118 92.32391357 C97.18724015 92.36107216 78.08565342 91.41954833 59.3125 87.75 C57.625802 87.4257605 57.625802 87.4257605 55.9050293 87.0949707 C36.6164843 83.25096582 14.73732499 78.2002609 1 63 C-0.35144654 60.29710692 -0.11975165 58.19930194 -0.11352539 55.17333984 C-0.11341209 53.34166763 -0.11341209 53.34166763 -0.11329651 51.47299194 C-0.10818952 50.13564005 -0.10297352 48.79828857 -0.09765625 47.4609375 C-0.0957914 46.09616141 -0.09436781 44.73138466 -0.09336853 43.36660767 C-0.08954863 39.77284907 -0.07972283 36.17913083 -0.06866455 32.58538818 C-0.05843911 28.91891018 -0.05386848 25.25242565 -0.04882812 21.5859375 C-0.0381001 14.39060659 -0.02102999 7.19530895 0 0 Z " fill="#3E9C62" transform="translate(363,262)"/>
<path d="M0 0 C3.72505638 2.62108512 6.96974231 5.20445103 8.5234375 9.57421875 C9.40387003 16.74027086 8.91880279 21.79084337 4.5234375 27.57421875 C-0.96117176 33.18941394 -7.8964947 35.82765935 -15.4765625 37.57421875 C-15.55782359 40.30398939 -15.61717913 43.03132045 -15.6640625 45.76171875 C-15.68919922 46.53064453 -15.71433594 47.29957031 -15.74023438 48.09179688 C-15.80043867 52.76766376 -15.50650282 55.76849661 -12.4765625 59.57421875 C-8.00795768 62.41787636 -2.57766021 62.27174454 2.5234375 61.57421875 C10.06336231 59.22033675 17.02104685 56.32780472 21.5234375 49.57421875 C25.08197089 49.17882615 27.6323834 49.2086581 30.9609375 50.57421875 C32.92695468 53.09072074 33.25607581 55.20194964 33.12109375 58.37109375 C31.95820253 62.65782999 28.7448435 65.65163095 25.5234375 68.57421875 C24.5334375 69.06921875 24.5334375 69.06921875 23.5234375 69.57421875 C22.87054802 71.59775452 22.87054802 71.59775452 22.4453125 74.0625 C22.25743164 74.99094727 22.06955078 75.91939453 21.87597656 76.87597656 C21.57771973 78.36629395 21.57771973 78.36629395 21.2734375 79.88671875 C18.05927706 94.78265695 12.74944582 107.57648886 -0.4140625 116.51171875 C-10.20826121 121.93797422 -20.98218216 123.33910695 -31.91015625 120.765625 C-44.72062405 116.40493573 -54.0052435 106.84819371 -59.9765625 94.88671875 C-61.64732102 91.10749501 -62.85183269 87.32428701 -63.91015625 83.33984375 C-64.16023438 82.40358154 -64.4103125 81.46731934 -64.66796875 80.50268555 C-65.15826174 78.61932514 -65.6264493 76.73004521 -66.0703125 74.83520508 C-67.51289106 69.21221438 -67.51289106 69.21221438 -71.51953125 65.0859375 C-72.49535156 64.58707031 -73.47117187 64.08820313 -74.4765625 63.57421875 C-77.4947109 60.71492027 -78.74543928 58.67280379 -78.9765625 54.57421875 C-78.79506664 51.67578485 -78.31486091 50.22972405 -77.0390625 47.51171875 C-74.2025753 45.3670577 -73.46365975 45.23831954 -70.0390625 45.38671875 C-66.3820903 46.01600293 -65.64351385 46.39014419 -63.0390625 49.26171875 C-62.66265625 49.79539062 -62.28625 50.3290625 -61.8984375 50.87890625 C-57.76696709 55.8048902 -51.57555478 58.75507654 -45.2890625 59.63671875 C-40.58656071 59.85181741 -37.51313002 58.97898238 -33.4765625 56.57421875 C-32.57417503 53.86705633 -32.35804948 52.33645107 -32.37890625 49.5625 C-32.38212891 48.80517578 -32.38535156 48.04785156 -32.38867188 47.26757812 C-32.39705078 46.48189453 -32.40542969 45.69621094 -32.4140625 44.88671875 C-32.41857422 44.08943359 -32.42308594 43.29214844 -32.42773438 42.47070312 C-32.439504 40.50517618 -32.45743902 38.5396879 -32.4765625 36.57421875 C-33.26160156 36.23390625 -34.04664063 35.89359375 -34.85546875 35.54296875 C-42.45289804 32.03789708 -48.63176241 28.26381894 -52.4765625 20.57421875 C-53.14752982 15.61821013 -53.5704955 10.73738304 -51.265625 6.1796875 C-39.17695206 -8.66157059 -15.68731767 -9.03134219 0 0 Z " fill="#372713" transform="translate(485.4765625,480.42578125)"/>
<path d="M0 0 C1.6404126 0.6036438 1.6404126 0.6036438 3.31396484 1.21948242 C4.53680176 1.66718994 5.75963867 2.11489746 7.01953125 2.57617188 C8.35486103 3.0752139 9.68997944 3.57482179 11.02490234 4.07495117 C12.40298029 4.58565113 13.78107288 5.09631153 15.15917969 5.60693359 C24.1454533 8.95515141 33.01884006 12.52557052 41.84667969 16.27270508 C55.56388812 22.07046646 69.46596694 27.40473717 83.37646484 32.71801758 C86.79039954 34.02377551 90.18961355 35.36440983 93.58740234 36.71166992 C95.27410027 37.35570154 96.96151432 37.9978634 98.64990234 38.63745117 C99.33084961 38.91741943 100.01179688 39.1973877 100.71337891 39.48583984 C116.38401443 45.22275089 129.9618386 39.44276177 144.33740234 33.26245117 C146.30606041 32.44110126 148.27605854 31.62295666 150.24731445 30.80786133 C153.28211249 29.55216865 156.31577049 28.29421396 159.34516907 27.02554321 C169.64679689 22.71180147 180.04545213 18.66269868 190.46240234 14.63745117 C193.66237849 13.39720844 196.86137884 12.15447051 200.06005859 10.91088867 C200.81453781 10.61825134 201.56901703 10.32561401 202.34635925 10.02410889 C206.56029322 8.3851994 210.76187072 6.71885813 214.95410156 5.02514648 C215.87299667 4.65434967 216.79189178 4.28355286 217.7386322 3.90151978 C219.51933819 3.18134129 221.29882071 2.45812848 223.07691956 1.73153687 C223.87500534 1.40867706 224.67309113 1.08581726 225.49536133 0.75317383 C226.20224594 0.46495758 226.90913055 0.17674133 227.63743591 -0.12020874 C229.39990234 -0.73754883 229.39990234 -0.73754883 231.39990234 -0.73754883 C231.39990234 6.19245117 231.39990234 13.12245117 231.39990234 20.26245117 C226.92818961 22.81771559 223.60142478 24.71608706 218.96240234 26.38745117 C212.60794855 28.76491844 206.34598256 31.33084962 200.08740234 33.94995117 C199.05550781 34.38130371 198.02361328 34.81265625 196.96044922 35.25708008 C192.7618553 37.01380584 188.56465884 38.77385364 184.36767578 40.53442383 C172.86794561 45.35585648 161.34891585 50.12168358 149.77490234 54.76245117 C148.72568604 55.18397461 147.67646973 55.60549805 146.59545898 56.03979492 C145.11807251 56.62954102 145.11807251 56.62954102 143.61083984 57.23120117 C142.31605713 57.7484375 142.31605713 57.7484375 140.99511719 58.27612305 C128.11939931 63.1696226 118.36312814 61.66539732 105.83740234 56.32495117 C104.59968849 55.81539717 103.36131384 55.30744557 102.12231445 54.80102539 C92.7165767 50.92960485 83.42601766 46.8043507 74.19287109 42.5402832 C70.34593249 40.78024154 66.48034868 39.06283989 62.61538696 37.34281921 C43.32190606 28.75472714 24.25112135 19.78305562 5.39990234 10.26245117 C3.40038967 9.26147711 1.40046163 8.26133182 -0.60009766 7.26245117 C-1.93343099 6.59578451 -3.26676432 5.92911784 -4.60009766 5.26245117 C-4.60009766 3.61245117 -4.60009766 1.96245117 -4.60009766 0.26245117 C-2.60009766 -0.73754883 -2.60009766 -0.73754883 0 0 Z " fill="#378855" transform="translate(368.60009765625,263.737548828125)"/>
<path d="M0 0 C3.45101437 2.62165769 6.59475896 5.3344544 9.5 8.5625 C10.18449219 9.24119141 10.18449219 9.24119141 10.8828125 9.93359375 C22.09187845 21.70017869 25.75010349 37.56912306 25.99609375 53.3125 C25.5 56.5625 25.5 56.5625 23.6875 58.96484375 C21.5 60.5625 21.5 60.5625 18.0625 61.125 C13.4872339 60.40258956 12.32958066 59.19040976 9.5 55.5625 C8.7467719 52.72525596 8.63134555 49.92419893 8.5 47 C7.56034179 35.19651139 4.01411843 25.12928308 -4.5 16.5625 C-7.0387158 14.58955515 -9.61247258 12.9722928 -12.5 11.5625 C-13.24636719 11.19769531 -13.99273438 10.83289063 -14.76171875 10.45703125 C-22.74623829 7.84867893 -33.71892948 8.46951866 -41.265625 12.12890625 C-50.8550431 18.28155737 -57.35370473 27.94955764 -60.10400391 38.98632812 C-60.81812802 42.36922502 -61.48421715 45.7455449 -61.99536133 49.16552734 C-62.66086352 53.18873344 -63.02327878 55.06815083 -65.9296875 58.08203125 C-69.16825974 59.94740949 -70.82097831 60.25231657 -74.5 59.5625 C-77.375 57.625 -77.375 57.625 -79.5 54.5625 C-81.53584739 40.53777353 -74.09196825 24.74257251 -66.3984375 13.48828125 C-50.65495915 -6.90035768 -22.26739316 -15.06420394 0 0 Z " fill="#362714" transform="translate(589.5,432.4375)"/>
<path d="M0 0 C10.71122094 8.70625378 17.01187884 21.40813322 19 35 C19.16468931 38.37594491 19.18507568 41.74549901 19.1875 45.125 C19.19974609 46.03121094 19.21199219 46.93742187 19.22460938 47.87109375 C19.22654297 48.74121094 19.22847656 49.61132812 19.23046875 50.5078125 C19.23457764 51.29816895 19.23868652 52.08852539 19.24291992 52.90283203 C19 55 19 55 17 58 C14.9765625 58.65234375 14.9765625 58.65234375 12.625 58.9375 C11.46871094 59.10572266 11.46871094 59.10572266 10.2890625 59.27734375 C8 59 8 59 5.74609375 57.44140625 C3.41851989 54.18696853 3.49964294 51.97714813 3.4375 48 C2.98733705 36.29150299 0.63386635 22.71331385 -7.95703125 14.01953125 C-17.28747917 6.79423219 -26.37133913 5.05127475 -38 6 C-47.40482449 8.18655583 -54.17694634 13.77479071 -59.3125 21.8125 C-63.81171497 29.90864836 -65.31850451 37.96964074 -66.27734375 47.1171875 C-67.14145231 50.56428003 -68.18447155 51.86946595 -71 54 C-73.76772217 54.78382757 -76.20425747 54.64164583 -79 54 C-82.49942901 51.28794252 -82.9355608 49.49940381 -83.5 45.125 C-82.58339363 27.3250957 -73.88256522 11.87421329 -61 0 C-42.74865982 -14.33124759 -18.65922968 -13.33184559 0 0 Z " fill="#3A2A16" transform="translate(399,432)"/>
<path d="M0 0 C3.2236446 2.02731427 5.96920412 4.28889242 8.3125 7.3125 C8.08558153 9.84390164 7.55265681 11.04264639 5.859375 12.9453125 C5.26640625 13.43773437 4.6734375 13.93015625 4.0625 14.4375 C3.47984375 14.93507813 2.8971875 15.43265625 2.296875 15.9453125 C-4.32620398 20.50845747 -11.98250606 20.11408111 -19.6875 19.3125 C-24.96296466 17.40703366 -28.61305798 13.98565187 -31.6875 9.3125 C-32.0175 8.3225 -32.3475 7.3325 -32.6875 6.3125 C-31.63262267 5.34578244 -30.56816719 4.38951255 -29.5 3.4375 C-28.90832031 2.90382813 -28.31664062 2.37015625 -27.70703125 1.8203125 C-20.72299169 -3.39407681 -7.82816527 -3.70413184 0 0 Z " fill="#F4906A" transform="translate(475.6875,569.6875)"/>
<path d="M0 0 C0.33 0.66 0.66 1.32 1 2 C0.28519894 3.96715577 -0.52189271 5.90125687 -1.375 7.8125 C-3.04471041 11.56701642 -4.31703946 14.94910659 -5 19 C-5.18175781 19.64710938 -5.36351562 20.29421875 -5.55078125 20.9609375 C-6.12002116 23.5447917 -6.16968191 25.98079481 -6.1875 28.625 C-6.20167969 29.58664062 -6.21585937 30.54828125 -6.23046875 31.5390625 C-6.24733824 34.17805749 -6.24733824 34.17805749 -4 36 C-1.31160615 36.26991906 1.29141936 36.08737357 4 36 C3.67 36.66 3.34 37.32 3 38 C-4.22330097 38.60194175 -4.22330097 38.60194175 -7.5 36.0625 C-11.66378859 27.56143164 -7.86332957 17.4802125 -5 9 C-3.53432199 5.84858468 -1.91636731 2.89811286 0 0 Z " fill="#251D10" transform="translate(325,448)"/>
<path d="M0 0 C0.66 0.33 1.32 0.66 2 1 C0.41925436 1.81752303 -1.16471223 2.62881997 -2.75 3.4375 C-3.63171875 3.88996094 -4.5134375 4.34242188 -5.421875 4.80859375 C-7.65544524 5.84077393 -9.62104385 6.44947948 -12 7 C-12.10806144 9.91765891 -12.18732877 12.83131125 -12.25 15.75 C-12.28351563 16.575 -12.31703125 17.4 -12.3515625 18.25 C-12.48647097 23.30162387 -12.48647097 23.30162387 -9.984375 27.578125 C-9.32953125 28.04734375 -8.6746875 28.5165625 -8 29 C-9.8125 28.8125 -9.8125 28.8125 -12 28 C-15.58549376 23.58708461 -15.36410892 19.5899215 -15.1875 14.1875 C-15.17396484 13.39923828 -15.16042969 12.61097656 -15.14648438 11.79882812 C-15.11133456 9.86558831 -15.05753361 7.93270318 -15 6 C-13.824375 5.566875 -12.64875 5.13375 -11.4375 4.6875 C-8.61252703 3.63879778 -5.86534054 2.50190294 -3.125 1.25 C-2.09375 0.8375 -1.0625 0.425 0 0 Z " fill="#F5D78B" transform="translate(484,512)"/>
<path d="M0 0 C-0.875 4.75 -0.875 4.75 -2 7 C-8.4 7.36923077 -8.4 7.36923077 -11.4375 5.5 C-11.953125 5.005 -12.46875 4.51 -13 4 C-12.67 3.34 -12.34 2.68 -12 2 C-10.515 2.99 -10.515 2.99 -9 4 C-8.566875 3.0409375 -8.566875 3.0409375 -8.125 2.0625 C-6.00428289 -1.82548136 -3.86823244 -0.91616031 0 0 Z " fill="#F0A854" transform="translate(548,828)"/>
<path d="M0 0 C0.66 0.33 1.32 0.66 2 1 C1.319375 1.495 0.63875 1.99 -0.0625 2.5 C-3.17262305 5.14691324 -5.71589706 7.99091034 -8.3515625 11.09765625 C-11.80555492 15.08366172 -15.2607965 17.63039825 -20 20 C-16.44902037 11.53227933 -7.38879957 5.07721981 0 0 Z " fill="#D88E49" transform="translate(547,763)"/>
<path d="M0 0 C1.485 0.99 1.485 0.99 3 2 C3.34057617 5.07275391 3.34057617 5.07275391 3.29296875 8.9765625 C3.28872391 9.66181 3.28447906 10.3470575 3.28010559 11.05307007 C3.26329753 13.24411129 3.22564405 15.43423632 3.1875 17.625 C3.17245579 19.10936173 3.15876693 20.59373785 3.14648438 22.078125 C3.1133879 25.71904833 3.06159207 29.35943478 3 33 C2.67 33 2.34 33 2 33 C1.93941406 31.85660156 1.87882812 30.71320312 1.81640625 29.53515625 C1.73201572 28.04425695 1.64736698 26.55337225 1.5625 25.0625 C1.52318359 24.30775391 1.48386719 23.55300781 1.44335938 22.77539062 C1.55961976 19.08055813 1.55961976 19.08055813 0 16 C-0.07319621 13.30345146 -0.09242537 10.63308542 -0.0625 7.9375 C-0.05798828 7.17888672 -0.05347656 6.42027344 -0.04882812 5.63867188 C-0.0370068 3.75908129 -0.01907078 1.87953101 0 0 Z " fill="#4C3A24" transform="translate(287,773)"/>
<path d="M0 0 C0.66 0.33 1.32 0.66 2 1 C-14.70842825 9.81548975 -14.70842825 9.81548975 -23 11 C-22.34 10.34 -21.68 9.68 -21 9 C-20.01 9 -19.02 9 -18 9 C-17.67 8.01 -17.34 7.02 -17 6 C-14.33708231 4.63049948 -12.02572382 4.00383121 -9.0625 3.5625 C-5.86852954 3.12268083 -5.86852954 3.12268083 -2.75 1.375 C-1.8425 0.92125 -0.935 0.4675 0 0 Z " fill="#261B0E" transform="translate(595,345)"/>
<path d="M0 0 C0.66 0.33 1.32 0.66 2 1 C2 1.66 2 2.32 2 3 C1.34 3 0.68 3 0 3 C-0.33 3.99 -0.66 4.98 -1 6 C-2.77734375 7.421875 -2.77734375 7.421875 -4.9375 8.75 C-5.64777344 9.19859375 -6.35804688 9.6471875 -7.08984375 10.109375 C-7.72019531 10.40328125 -8.35054687 10.6971875 -9 11 C-9.66 10.67 -10.32 10.34 -11 10 C-9.73657512 8.51450044 -8.4639897 7.03678811 -7.1875 5.5625 C-6.47980469 4.73878906 -5.77210938 3.91507813 -5.04296875 3.06640625 C-3 1 -3 1 0 0 Z " fill="#B8753A" transform="translate(633,612)"/>
<path d="M0 0 C6.40587969 0.16425333 10.57018649 3.7167612 15 8 C16.92070766 10.55205138 18.53428414 13.16431857 20 16 C19.34 16.33 18.68 16.66 18 17 C17.63648438 16.38511719 17.27296875 15.77023437 16.8984375 15.13671875 C13.84004059 10.21975756 11.67452147 7.02661481 6 5 C6 4.34 6 3.68 6 3 C4.02 2.34 2.04 1.68 0 1 C0 0.67 0 0.34 0 0 Z " fill="#DC9149" transform="translate(325,270)"/>
<path d="M0 0 C0.03738281 1.03640625 0.07476562 2.0728125 0.11328125 3.140625 C0.17895788 4.51045184 0.24540464 5.88024191 0.3125 7.25 C0.33505859 7.93191406 0.35761719 8.61382812 0.38085938 9.31640625 C0.60166604 13.45151296 1.09593 15.97914434 4 19 C1.50638429 17.79618552 -0.68143083 16.54571278 -3 15 C-3.29296875 11.7421875 -3.29296875 11.7421875 -3.1875 7.875 C-3.16042969 6.59367187 -3.13335937 5.31234375 -3.10546875 3.9921875 C-3.07066406 3.00476563 -3.03585937 2.01734375 -3 1 C-1 0 -1 0 0 0 Z " fill="#B0753D" transform="translate(403,472)"/>
<path d="M0 0 C-0.66 0 -1.32 0 -2 0 C-2 0.66 -2 1.32 -2 2 C-4.375 4.625 -4.375 4.625 -7 7 C-7.66 7 -8.32 7 -9 7 C-9.66 9.64 -10.32 12.28 -11 15 C-11.33 15 -11.66 15 -12 15 C-11.62270085 8.96321355 -9.73910188 4.77579991 -6 0 C-3.50907189 -1.24546405 -2.58919267 -0.7767578 0 0 Z " fill="#271B10" transform="translate(160,531)"/>
<path d="M0 0 C2.12109375 0.3984375 2.12109375 0.3984375 4 1 C-1.91684902 7.70459519 -1.91684902 7.70459519 -6.4375 8.9375 C-7.283125 8.958125 -8.12875 8.97875 -9 9 C-7.33333333 7.33333333 -5.66666667 5.66666667 -4 4 C-2.9790625 2.824375 -2.9790625 2.824375 -1.9375 1.625 C-1.298125 1.08875 -0.65875 0.5525 0 0 Z " fill="#2F2212" transform="translate(648,606)"/>
<path d="M0 0 C0.33 0 0.66 0 1 0 C0.58411954 6.19518473 -0.60251894 11.26689311 -3 17 C-3.66 16.67 -4.32 16.34 -5 16 C-4.71640113 14.5608866 -4.42278601 13.12374482 -4.125 11.6875 C-3.96257813 10.88699219 -3.80015625 10.08648438 -3.6328125 9.26171875 C-3 7 -3 7 -1 4 C-0.36707617 1.88719655 -0.36707617 1.88719655 0 0 Z " fill="#D58A46" transform="translate(664,851)"/>
<path d="M0 0 C5.75 -0.125 5.75 -0.125 8 1 C7.67 1.99 7.34 2.98 7 4 C6.34 4 5.68 4 5 4 C5 3.34 5 2.68 5 2 C1.18586998 3.1678266 1.18586998 3.1678266 -1.3125 6.125 C-1.539375 6.74375 -1.76625 7.3625 -2 8 C-2.66 7.67 -3.32 7.34 -4 7 C-3.34 5.35 -2.68 3.7 -2 2 C-1.34 2 -0.68 2 0 2 C0 1.34 0 0.68 0 0 Z " fill="#DA8E47" transform="translate(541,825)"/>
<path d="M0 0 C-1.65 0.33 -3.3 0.66 -5 1 C-5.33 1.99 -5.66 2.98 -6 4 C-7.8125 5.75 -7.8125 5.75 -10 7 C-12.25 6.6875 -12.25 6.6875 -14 6 C-4.9893617 -1.78191489 -4.9893617 -1.78191489 0 0 Z " fill="#271D0F" transform="translate(451,478)"/>
<path d="M0 0 C0.66 0.66 1.32 1.32 2 2 C1.6073749 8.18384537 0.46522194 10.80216709 -3 16 C-2.52013969 10.43109483 -1.70084819 5.32932432 0 0 Z " fill="#2B2011" transform="translate(687,534)"/>
<path d="M0 0 C-5.89895571 4.0449982 -12.07303328 3.27748976 -19 3 C-19 2.67 -19 2.34 -19 2 C-16.20962572 1.47120316 -13.41807402 0.95165912 -10.625 0.4375 C-9.8309375 0.28603516 -9.036875 0.13457031 -8.21875 -0.02148438 C-2.2265625 -1.11328125 -2.2265625 -1.11328125 0 0 Z " fill="#38130A" transform="translate(498,303)"/>
<path d="M0 0 C3.06188727 4.08251636 3.37243503 4.56497929 3.1875 9.25 C3.16042969 10.14203125 3.13335938 11.0340625 3.10546875 11.953125 C3.07066406 12.62859375 3.03585937 13.3040625 3 14 C2.01 14.33 1.02 14.66 0 15 C0 10.05 0 5.1 0 0 Z " fill="#463724" transform="translate(797,729)"/>
<path d="M0 0 C3.5 0.125 3.5 0.125 7 1 C8.4375 3.0625 8.4375 3.0625 9 5 C8.01 4.34 7.02 3.68 6 3 C3.37468476 2.83286431 3.37468476 2.83286431 1 3 C0.67 3.66 0.34 4.32 0 5 C-2.0625 5.625 -2.0625 5.625 -4 6 C-2.84826645 3.53199953 -1.95216435 1.95216435 0 0 Z " fill="#281E11" transform="translate(313,684)"/>
<path d="M0 0 C3.875 0.875 3.875 0.875 5 2 C4.75 5.4375 4.75 5.4375 4 9 C3.01 9.66 2.02 10.32 1 11 C1 10.34 1 9.68 1 9 C0.34 8.34 -0.32 7.68 -1 7 C-0.34 6.67 0.32 6.34 1 6 C1.66 6.33 2.32 6.66 3 7 C2.42547254 3.06924356 2.42547254 3.06924356 0 0 Z " fill="#45301A" transform="translate(361,635)"/>
<path d="M0 0 C0.33 0 0.66 0 1 0 C1.75 3.1875 1.75 3.1875 2 7 C0.0625 9.9375 0.0625 9.9375 -2 12 C-3.32 11.67 -4.64 11.34 -6 11 C-5.04867187 10.64808594 -5.04867187 10.64808594 -4.078125 10.2890625 C-1.81749261 9.17709092 -1.81749261 9.17709092 -1.171875 6.8359375 C-0.96304688 5.61777344 -0.96304688 5.61777344 -0.75 4.375 C-0.60046875 3.55773437 -0.4509375 2.74046875 -0.296875 1.8984375 C-0.19890625 1.27195312 -0.1009375 0.64546875 0 0 Z " fill="#B9773D" transform="translate(824,569)"/>
<path d="M0 0 C0.66 0.33 1.32 0.66 2 1 C-3.75 5.875 -3.75 5.875 -6 7 C-6.66 7.99 -7.32 8.98 -8 10 C-8.5 7.8125 -8.5 7.8125 -8 5 C-5.56899818 2.89646189 -2.96359654 1.24970939 0 0 Z " fill="#442F18" transform="translate(650,363)"/>
<path d="M0 0 C-5.16017278 2.98746845 -10.19834261 4.02541328 -16 5 C-14.54987453 2.09974906 -12.68687091 1.91293145 -9.6875 0.8125 C-8.72199219 0.44769531 -7.75648438 0.08289063 -6.76171875 -0.29296875 C-3.9652203 -1.008904 -2.66140462 -0.99249531 0 0 Z " fill="#3B170D" transform="translate(566,262)"/>
<path d="M0 0 C0.33 0.99 0.66 1.98 1 3 C1.66 3 2.32 3 3 3 C3.33 5.64 3.66 8.28 4 11 C3.01 11.33 2.02 11.66 1 12 C-0.3271261 8.0186217 -0.06915913 4.14954773 0 0 Z " fill="#261A0D" transform="translate(290,823)"/>
<path d="M0 0 C0.33 0.66 0.66 1.32 1 2 C-3.625 7.875 -3.625 7.875 -7 9 C-6.82374165 6.62051228 -6.30280227 5.29774151 -4.59765625 3.62109375 C-3.09350908 2.37884514 -1.54870149 1.18623944 0 0 Z " fill="#CD8745" transform="translate(599,731)"/>
<path d="M0 0 C0.66 0.33 1.32 0.66 2 1 C-1.82180842 5.4008703 -4.47371099 6.80805531 -10 8 C-6.97727468 4.74475735 -3.74281699 2.38179263 0 0 Z " fill="#271D10" transform="translate(637,615)"/>
<path d="M0 0 C-1.76997474 0.81436868 -3.54101152 1.6264294 -5.3125 2.4375 C-6.29863281 2.88996094 -7.28476562 3.34242188 -8.30078125 3.80859375 C-11 5 -11 5 -14 6 C-14 5.01 -14 4.02 -14 3 C-12.23358317 2.3012307 -10.46167336 1.61633417 -8.6875 0.9375 C-7.20830078 0.36322266 -7.20830078 0.36322266 -5.69921875 -0.22265625 C-3 -1 -3 -1 0 0 Z " fill="#3FB773" transform="translate(295,208)"/>
<path d="M0 0 C1.98 0 3.96 0 6 0 C6 0.66 6 1.32 6 2 C8.97 2.99 11.94 3.98 15 5 C10.34884858 6.16278786 9.41507155 5.59545159 5.25 3.5625 C4.26515625 3.08941406 3.2803125 2.61632812 2.265625 2.12890625 C1.51796875 1.75636719 0.7703125 1.38382813 0 1 C0 0.67 0 0.34 0 0 Z " fill="#3B1B0F" transform="translate(507,137)"/>
<path d="M0 0 C1.09651823 3.41139003 0.94215473 6.20655581 0.5625 9.75 C0.40974609 11.22726562 0.40974609 11.22726562 0.25390625 12.734375 C0.12822266 13.85585938 0.12822266 13.85585938 0 15 C-2 13 -2 13 -2.01171875 10.46875 C-1.90472656 9.4890625 -1.79773438 8.509375 -1.6875 7.5 C-1.58824219 6.5203125 -1.48898437 5.540625 -1.38671875 4.53125 C-1 2 -1 2 0 0 Z " fill="#D58A47" transform="translate(308,736)"/>
<path d="M0 0 C-2.34591852 2.7710688 -4.14776201 3.52059284 -7.6875 4.1875 C-8.49574219 4.34605469 -9.30398438 4.50460937 -10.13671875 4.66796875 C-11.05904297 4.83232422 -11.05904297 4.83232422 -12 5 C-12 4.34 -12 3.68 -12 3 C-10.5682384 2.30062798 -9.12932968 1.61587282 -7.6875 0.9375 C-6.48673828 0.36322266 -6.48673828 0.36322266 -5.26171875 -0.22265625 C-3 -1 -3 -1 0 0 Z " fill="#2A2112" transform="translate(613,826)"/>
<path d="M0 0 C4.455 0.99 4.455 0.99 9 2 C9 2.33 9 2.66 9 3 C7.35 3 5.7 3 4 3 C4.33 5.64 4.66 8.28 5 11 C2.03947516 7.63576723 1.07710178 4.30840713 0 0 Z " fill="#B67338" transform="translate(580,654)"/>
<path d="M0 0 C0.66 0 1.32 0 2 0 C2.625 2.375 2.625 2.375 3 5 C2.34 5.66 1.68 6.32 1 7 C0.30251417 8.31747324 -0.36959957 9.64914193 -1 11 C-2.23076923 4.6 -2.23076923 4.6 -1.0625 1.5625 C-0.711875 1.046875 -0.36125 0.53125 0 0 Z " fill="#463420" transform="translate(795,754)"/>
<path d="M0 0 C0.66 0 1.32 0 2 0 C2 3.3 2 6.6 2 10 C1.01 10 0.02 10 -1 10 C-1.02689216 8.52093108 -1.04634621 7.04172517 -1.0625 5.5625 C-1.07410156 4.73878906 -1.08570313 3.91507812 -1.09765625 3.06640625 C-1 1 -1 1 0 0 Z " fill="#432F17" transform="translate(600,478)"/>
<path d="M0 0 C4.20581591 -0.35048466 5.77702123 0.38132975 9 3 C10.64797236 3.71162443 12.31165408 4.39031953 14 5 C10.33529384 6.22156872 9.36762312 5.62833432 5.875 4.1875 C4.98554688 3.83042969 4.09609375 3.47335937 3.1796875 3.10546875 C1 2 1 2 0 0 Z " fill="#3A160C" transform="translate(412,280)"/>
<path d="M0 0 C-0.66 0 -1.32 0 -2 0 C-2 0.66 -2 1.32 -2 2 C-5.3 2.66 -8.6 3.32 -12 4 C-10.720327 1.44065399 -9.75798964 1.3010767 -7.125 0.3125 C-6.07699219 -0.09548828 -6.07699219 -0.09548828 -5.0078125 -0.51171875 C-3 -1 -3 -1 0 0 Z " fill="#39A064" transform="translate(589,269)"/>
<path d="M0 0 C2.31 0.33 4.62 0.66 7 1 C7 1.66 7 2.32 7 3 C7.66 3 8.32 3 9 3 C9 3.66 9 4.32 9 5 C5.22454612 3.90931332 2.52956528 3.0916909 0 0 Z " fill="#312413" transform="translate(323,632)"/>
<path d="M0 0 C6.75 -0.125 6.75 -0.125 9 1 C9 1.66 9 2.32 9 3 C6.36 3 3.72 3 1 3 C0.67 2.01 0.34 1.02 0 0 Z " fill="#B6763D" transform="translate(499,369)"/>
<path d="M0 0 C1.125 3.75 1.125 3.75 0 6 C-0.66 6 -1.32 6 -2 6 C-2.66 7.32 -3.32 8.64 -4 10 C-3.5205537 5.78087253 -2.83374881 3.20336822 0 0 Z " fill="#D88E49" transform="translate(284,284)"/>
<path d="M0 0 C0 3 0 3 -2.5 5.6875 C-3.325 6.450625 -4.15 7.21375 -5 8 C-5 5 -5 5 -2.5 2.3125 C-1.675 1.549375 -0.85 0.78625 0 0 Z " fill="#2B2112" transform="translate(671,778)"/>
<path d="M0 0 C0.33 0.99 0.66 1.98 1 3 C-2.75 6 -2.75 6 -5 6 C-3.63016497 2.83884224 -3.0109362 2.0072908 0 0 Z " fill="#B6753C" transform="translate(678,597)"/>
<path d="M0 0 C0.66 0.33 1.32 0.66 2 1 C1.01 1.33 0.02 1.66 -1 2 C-2.20882096 4.00016466 -2.20882096 4.00016466 -3 6 C-3.99 5.67 -4.98 5.34 -6 5 C-2.25 1.125 -2.25 1.125 0 0 Z " fill="#261D0F" transform="translate(346,427)"/>
<path d="M0 0 C-0.66 0 -1.32 0 -2 0 C-2.33 0.99 -2.66 1.98 -3 3 C-5.31 3 -7.62 3 -10 3 C-4.37755102 -1.45918367 -4.37755102 -1.45918367 0 0 Z " fill="#389D62" transform="translate(530,292)"/>
<path d="M0 0 C-0.33 0.99 -0.66 1.98 -1 3 C-3.64 3.33 -6.28 3.66 -9 4 C-6.19632015 0.92930303 -4.26207314 0 0 0 Z " fill="#38985F" transform="translate(576,273)"/>
<path d="M0 0 C0.66 0.33 1.32 0.66 2 1 C-0.75 5.875 -0.75 5.875 -3 7 C-3.1875 4.625 -3.1875 4.625 -3 2 C-2.01 1.34 -1.02 0.68 0 0 Z " fill="#453727" transform="translate(746,853)"/>
<path d="M0 0 C1.46726798 3.81489674 0.43336419 6.29011622 -1 10 C-3 6.25 -3 6.25 -3 4 C-2.34 3.67 -1.68 3.34 -1 3 C-0.67 2.01 -0.34 1.02 0 0 Z " fill="#1E180E" transform="translate(263,460)"/>
</svg>
